<svg width="119" height="33" viewBox="0 0 119 33" fill="none" xmlns="http://www.w3.org/2000/svg">
<path d="M0.429993 32H6.44999L8.64299 24.905H18.189L20.382 32H26.402L16.211 1.90001H10.621L0.429993 32ZM10.234 19.745L13.416 9.29602L16.598 19.745H10.234Z" fill="black"/>
<path d="M29.972 32H35.304V14.886H39.862V10.328H35.304V8.82302C35.304 7.01702 36.121 6.11401 37.755 6.11401C38.529 6.11401 39.389 6.32902 40.335 6.71602L41.496 2.41602C40.421 1.85702 39.088 1.55602 37.454 1.55602C32.81 1.55602 29.972 4.09301 29.972 9.21002V10.328H27.22V14.886H29.972V32Z" fill="black"/>
<path d="M44.7113 32H50.0433V14.886H54.6013V10.328H50.0433V8.82302C50.0433 7.01702 50.8603 6.11401 52.4943 6.11401C53.2683 6.11401 54.1283 6.32902 55.0743 6.71602L56.2353 2.41602C55.1603 1.85702 53.8273 1.55602 52.1933 1.55602C47.5493 1.55602 44.7113 4.09301 44.7113 9.21002V10.328H41.9593V14.886H44.7113V32Z" fill="black"/>
<path d="M59.3215 32H64.6535V1.55602H59.3215V32Z" fill="black"/>
<path d="M70.6594 32H75.9914V10.328H70.6594V32ZM69.8854 4.09301C69.8854 6.02802 71.3904 7.53302 73.3254 7.53302C75.2604 7.53302 76.7654 6.02802 76.7654 4.09301C76.7654 2.15802 75.2604 0.653015 73.3254 0.653015C71.3904 0.653015 69.8854 2.15802 69.8854 4.09301Z" fill="black"/>
<path d="M100.22 20.691C100.22 15.574 96.9953 9.98402 90.1153 9.98402C82.9773 9.98402 79.7093 15.703 79.7093 21.164C79.7093 26.625 82.9773 32.344 90.1153 32.344C95.1033 32.344 98.1993 30.108 99.9623 26.023L95.6623 24.432C94.3293 26.711 92.8243 27.786 90.4163 27.786C87.6213 27.786 85.7293 26.109 85.2563 22.884H100.22V20.691ZM85.3853 18.67C86.0733 15.961 87.8363 14.542 90.1153 14.542C92.7383 14.542 94.2433 16.262 94.7593 18.67H85.3853Z" fill="black"/>
<path d="M104.017 32H109.349V24.303C109.349 17.724 111.757 14.757 115.154 14.757C115.971 14.757 116.745 14.972 117.39 15.359L118.379 10.414C117.433 10.113 116.573 9.98402 115.756 9.98402C113.219 9.98402 110.897 11.403 109.349 13.854V10.328H104.017V32Z" fill="black"/>
</svg>
